<svg width="240" height="240" viewBox="0 0 240 240" xmlns="http://www.w3.org/2000/svg" role="img" aria-label="hfvast logo">
  <defs>
    <linearGradient id="bg" x1="0" y1="0" x2="1" y2="1">
      <stop offset="0" stop-color="#6d28d9"/>
      <stop offset="1" stop-color="#1d4ed8"/>
    </linearGradient>
    <linearGradient id="bolt" x1="0" y1="0" x2="0" y2="1">
      <stop offset="0" stop-color="#fde047"/>
      <stop offset="1" stop-color="#f59e0b"/>
    </linearGradient>
  </defs>
  <rect width="240" height="240" rx="52" fill="url(#bg)"/>
  <g fill="#ffffff" opacity="0.96">
    <circle cx="92" cy="106" r="24"/>
    <circle cx="122" cy="94" r="30"/>
    <circle cx="152" cy="108" r="21"/>
    <rect x="76" y="106" width="96" height="26" rx="13"/>
  </g>
  <path d="M129 96 L99 150 h22 l-11 44 51-66 h-25 l17-32 z" fill="url(#bolt)" stroke="#1e1b4b" stroke-width="3" stroke-linejoin="round"/>
  <g fill="#ffffff" opacity="0.85">
    <rect x="92" y="196" width="8" height="14" rx="2"/>
    <rect x="106" y="196" width="8" height="14" rx="2"/>
    <rect x="120" y="196" width="8" height="14" rx="2"/>
    <rect x="134" y="196" width="8" height="14" rx="2"/>
    <rect x="148" y="196" width="8" height="14" rx="2"/>
    <rect x="88" y="186" width="72" height="14" rx="5"/>
  </g>
</svg>
